<svg version="1.1" id="FullLogoImage-Layer_1" xmlns="http://www.w3.org/2000/svg" x="0" y="0" viewBox="0 0 140 38.3" xml:space="preserve"><style>.st0{fill:#231535}</style><path class="st0" d="M82.2 27.4c.3 0 .6.2.6.6s-.2.6-.6.6c-.3 0-.6-.2-.6-.6 0-.4.3-.6.6-.6M92.6 31.1c0-.5.1-1 .4-1.4l.5-.5c.1.1.3.2.5.4.5.4.8.9.9 1.5.1.7-.1 1.3-.5 1.8l-.3.3-.1.1-.1-.1c-.3-.3-.6-.6-.8-1-.1-.3-.3-.5-.3-.8-.2-.1-.2-.2-.2-.3m-.5.2c0 .3 0 .5.1.8 0 .1.1.2.1.3.2.4.4.8.7 1.1.5.5 1 1.1 1.4 1.7.1.2.2.5.2.8v.3c.2 0 .4-.5.5-.7.1-.6-.1-1.2-.6-1.6l-.2-.2-.1-.2.3-.2.2-.2.2-.2.1-.1c.2-.2.3-.4.4-.7.2-.6.2-1.2-.1-1.8-.1-.1-.2-.3-.3-.4-.2-.3-.5-.5-.7-.7l-.1-.1-.3-.2-.3-.3c-.1.1-.3.2-.4.3l-.2.2-.3.3-.1.1c-.4.5-.6 1.1-.5 1.7M69.2 29.5c.1-.1 0-.1.5-.1h2c-.2.2-.3.5-.3.8 0 .3 0 .7-.1 1l-.1 1c-.1.8-.1 1.7.1 2.5 0 .1 0 .1.1.2.3.7.9 1.4 1.7 1.4l-.3-.3c-.1-.2-.3-.3-.4-.5l-.3-.6c-.2-.4-.2-.8-.2-1.3 0-.3.3-2.7.3-3.1 0-.3.1-.7.2-1 0-.1.1-.1.1-.2.1-.2.3-.3.5-.5-.2 0-.3 0-.5.1-.9.1-1.9.1-2.8.1-.2 0-.3 0-.4.1-.1.1-.1.2-.1.4M88.2 33.6h.6v-1.2h1.6v1.2h.6v-4.3h-.6V32h-1.5v-2.7h-.6l-.1 4.3zM77.4 33.7h.4v-3c.1.2.2.3.3.4l.6.6.6.6c.1.1.2.2.3.4.2.2.3.5.5.8 0 0 0 .1.1.1.1.1.2.1.2.1v-4.4H80v3.1c-.2-.4-.5-.7-.8-.9l-.1-.1-.2-.4-.2-.2-.2-.2c-.2-.2-.4-.5-.5-.7l-.2-.4-.1-.2c-.1 0-.2-.1-.3-.1v4.5zM83.8 30.1c0 .5.5.9.8 1.1l.2.1c.1 0 .1.1.2.1.4.2 1.4.7 1.4 1.2 0 .1 0 .2-.1.3-.6.5-1.5.5-2-.1l-.1-.1c-.2-.3-.2-.5-.6-.5-.1 0-.2-.1 0 .3s.5.7.9.9c.6.3 1.3.3 1.9 0l.2-.1c.4-.2.6-.5.6-.9 0-.6-.6-1.1-1.1-1.3s-.8-.4-1.1-.6l-.3-.2c-.1-.1-.2-.2-.2-.4v-.3c.2-.3.8-.3 1.2 0l.2.2.1.1.3.3h.2c-.2-.8-1-1.3-1.8-1.1-.2 0-.3.1-.5.2-.2.3-.4.5-.4.8"></path><path class="st0" d="M75.7 30.5v1.9H74c0-.3.6-.7.8-1 .2-.2.4-.4.6-.5l.1-.1.2-.3zM73 33.2c0 .2 0 .3.1.5h.8c0-.1 0-.1-.1-.2 0-.3 0-.6.1-.8h1.8v1h.5v-4.5c0-.1-.1 0-.1 0-.1.1-.2.2-.3.4-.1.2-.3.4-.4.5-.2.2-.4.5-.7.7l-.1.1-.1.1-.5.5h-.1c-.3.3-.5.6-.7 1-.1.2-.2.5-.2.7M81.9 29.3h.6v4.4h-.6zM66.7 33.6l-1.7.1v-.1c.2-.1.3-.4.1-1l-.1-.4h-1.9l-.1.3c-.2.6-.1.9.2 1.1v.1h-1.3v-.1c.4-.2.7-.6.9-1.1l1.6-3.8h.1l1.6 3.8c0 .5.2.9.6 1.1zM64.9 32l-.9-2.1-.8 2.1h1.7zM102.5 30.3c0 1-.8 1.5-1.8 1.5h-.3v-.1c.7 0 1.3-.6 1.3-1.2v-.2c.1-.6-.4-1.2-1-1.3h-.7v3.8c0 .5.1.7.3.8v.1h-1.4v-.1c.2-.1.3-.3.3-.8v-3.2c0-.5-.1-.7-.3-.8v-.1h1.7c1.2.2 1.9.7 1.9 1.6zM106.4 33.4c-.2.3-.4.4-.7.4-.3 0-.6-.2-.6-.5-.3.3-.7.5-1.1.5-.5 0-1-.3-1-.8v-.1c0-.7.7-1.1 1.6-1.1h.5v-.5c0-.6-.1-1-.7-1-.2 0-.5.1-.6.3.2.1.3.4.2.6-.1.1-.2.2-.4.2s-.4-.2-.4-.4c0-.5.6-.8 1.3-.8 1.1 0 1.4.5 1.4 1.2V33c0 .3.1.4.4.4h.1zm-1.3-.4v-1.1h-.2c-.7 0-1 .3-1 .8 0 .3.2.6.5.6h.1c.2.1.5-.1.6-.3zM109.7 30.5c0 .3-.2.5-.5.5s-.5-.2-.4-.5c-.3.1-.5.3-.7.5v1.9c0 .5.1.7.4.8v.1H107v-.1c.2-.1.3-.3.3-.8V31c0-.2-.1-.5-.3-.6v-.1l1.1-.4v.8c.3-.4.7-.8 1.1-.8.3.1.5.3.5.6zM112.3 33.3c-.3.3-.6.5-1 .5-.6 0-.8-.3-.8-1v-2.4h-.5v-.2c.5-.2.9-.6 1.1-1.2h.2v1l1-.1-.1.4h-.9v2.3c0 .5.1.7.5.7h.5zM114.2 33.6l-1.4.1v-.1c.2-.1.3-.3.3-.8V31c0-.2-.1-.5-.3-.6v-.1l1.1-.4v.8c.3-.4.9-.7 1.4-.8.7 0 1 .5 1 1.1v1.7c0 .5.1.7.3.8v.1h-1.4v-.1c.2-.1.3-.3.3-.8v-1.6c0-.5-.2-.7-.7-.7-.3 0-.7.1-.9.4v2c0 .5.1.7.3.8zM120.5 32.9c-.3.5-.9.8-1.5.9-.9 0-1.7-.7-1.7-1.6V32c-.1-1 .6-1.8 1.6-1.9h.2c.8-.1 1.4.5 1.5 1.2v.5h-2.4c0 1.1.6 1.6 1.3 1.6.3-.1.7-.3 1-.5zm-2.4-1.3l1.7-.1c0-.7-.2-1.2-.8-1.2s-.9.6-.9 1.3zM123.9 30.5c0 .3-.2.5-.5.5s-.5-.2-.4-.5c-.3.1-.5.3-.7.5v1.9c0 .5.1.7.4.8v.1h-1.5v-.1c.2-.1.3-.3.3-.8V31c0-.2-.1-.5-.3-.6v-.1l1.1-.3v.8c.3-.4.7-.8 1.1-.8.3 0 .5.2.5.5zM124.7 32.7c.2 0 .4.1.4.4 0 .1-.1.2-.2.3.2.2.4.2.7.2.5 0 .8-.2.8-.6 0-1-2-.7-2-2 0-.6.6-1 1.3-1s1.2.3 1.2.7c0 .2-.2.4-.4.4s-.4-.1-.4-.4c0-.1.1-.2.2-.3-.2-.1-.4-.2-.6-.2-.4 0-.6.2-.6.5 0 .9 2 .6 2 1.9 0 .7-.6 1.2-1.3 1.1h-.1c-.7 0-1.3-.3-1.3-.7-.1-.1.1-.3.3-.3zM129.1 33.6l-1.4.1v-.1c.2-.1.3-.3.3-.8v-3.5c0-.2-.1-.5-.3-.6v-.1l1.1-.4v2.4c.3-.4.9-.7 1.4-.7.7 0 .9.5.9 1.1v1.7c0 .5.1.7.3.8v.1H130v-.1c.2-.1.3-.3.3-.8v-1.6c0-.5-.2-.7-.6-.7-.3 0-.7.1-.9.4v2c0 .5.1.7.3.8zM133.7 33.6l-1.4.1v-.1c.2-.1.3-.3.3-.8V31c0-.2-.1-.5-.3-.6v-.1l1.1-.4v2.9c0 .5.1.7.3.8zm-.2-4.6c0 .3-.2.5-.5.5s-.5-.2-.5-.5.2-.5.5-.5c.2 0 .5.2.5.5zM138.2 31.8c.1 1-.5 1.9-1.5 2h-.2c-.3 0-.6-.1-.9-.2v1c0 .5.1.7.4.8v.1h-1.5v-.1c.2-.1.3-.3.3-.8V31c0-.2-.1-.5-.3-.6v-.1l1.1-.4v.7c.3-.4.7-.7 1.1-.7 1 .1 1.5.9 1.5 1.9zm-.9.2c0-.8-.4-1.5-1-1.5-.3 0-.5.1-.8.3v2c.1.5.4.8.8.8s1.1-.5 1-1.6zM44.4 20.3h-.1l-.3.2c-.8.6-1.8 1-2.8 1-1.9 0-3.2-1.6-3.2-4s1.3-4 3.2-4c1 0 1.9.4 2.6 1l.3.2h.1s.1 0 .1-.1l.3-1.9v-.1l-.1-.1c-1-.7-2.1-1-3.3-.9-3.1 0-5.3 2.4-5.3 5.9s2.1 5.9 5.3 5.9c1.2 0 2.4-.4 3.5-1l.1-.1s.1-.1 0-.1l-.3-1.8c0-.1 0-.1-.1-.1zM53.5 11.7h-1.8s-.1 0-.1.1l-4.5 11.3v.1h2s.1 0 .1-.1l1.2-3h4.3l1.3 3.2.1.1L58 23h.1v-.1l-4.4-11c0-.1 0-.2-.2-.2.1 0 .1 0 0 0zm.5 6.5h-2.9l1.4-3.8 1.5 3.8zM66.8 18.5c1.4-.5 2.3-1.8 2.2-3.2 0-2.1-1.7-3.5-4.3-3.5h-3.2s-.1 0-.1.1V23c0 .1 0 .1.1.1h1.9c.1 0 .1 0 .1-.1v-4.2h1l3.2 4.4h.1l2-.4s.1 0 .1-.1v-.1l-3.1-4.1zm.1-3.1c0 1.1-.8 1.7-2.2 1.7h-1.2v-3.3h1.2c1.5 0 2.2.5 2.2 1.6zM77.9 11.7h-1.8s-.1 0-.1.1l-4.4 11.3v.1h2s.1 0 .1-.1l1.2-3h4.3l1.2 3.2.1.1 1.9-.4h.1v-.1l-4.4-11c0-.1-.1-.1-.2-.2.1 0 0 0 0 0zm.5 6.5h-2.9l1.4-3.8 1.5 3.8zM92.4 11.9h-8.8s-.1 0-.1.1v1.7c0 .1 0 .1.1.1H87v9.3c0 .1 0 .1.1.1H89c.1 0 .1 0 .1-.1v-9.3h3.6v-.1l-.2-1.7c0-.1 0-.1-.1-.1zM101.8 21.3h-4V12c0-.1 0-.1-.1-.1h-1.8c-.1 0-.1 0-.1.1v11.1c0 .1 0 .1.1.1h6.3v-.1l-.3-1.7c-.1 0-.1-.1-.1-.1zM110.4 11.7h-1.8s-.1 0-.1.1L104 23.1v.1h2s.1 0 .1-.1l1.2-3h4.3l1.2 3.2s0 .1.1.1l1.8-.4h.1v-.1l-4.4-11v-.2zm-2.4 6.5l1.4-3.8 1.4 3.8H108zM126.7 11.9h-1.8s-.1 0-.1.1v7.4l-5.1-7.5H117.8c-.1 0-.1 0-.1.1v11.1c0 .1 0 .1.1.1h1.8c.1 0 .1 0 .1-.1v-7.8l5.3 7.8H126.7c.1 0 .1 0 .1-.1V12s0-.1-.1-.1c0-.1 0-.1 0 0zM138.1 21.3h-5v-3h4.3v-.1l-.3-1.8-.1-.1h-4v-2.6h4.9c.1 0 .1-.1.1-.1V12c0-.1 0-.1-.1-.1H131c-.1 0-.1 0-.1.1v11.1c0 .1 0 .1.1.1h7c.1 0 .1 0 .1-.1v-1.8z"></path><path d="M16 33.5l2.9 1.4 2.9-1.4-2.9-3-2.9 3zm7-5.5l-2.1 2.3 3.7 1.6 1.6-3.7L23 28zm-8.2 0l-3.2.2 1.6 3.7 3.7-1.6-2.1-2.3zm13 3.1l3.1-1.1 1.1-3.1h-4.2v4.2zM5.9 26.9l1 3.1 3.1 1v-4.2l-4.1.1zm13-1.3l-2.3 1 2.3 2.3 2.3-2.3-2.3-1zm5.4-2.2l-.8 2.4h3.2v-3.2l-2.4.8zm-13.2 2.3h3.2l-.8-2.4-2.4-.8v3.2zm-4.5-5.8L5 23.6l3.7 1.6.2-3.2-2.3-2.1zM8 18l2.3 2.3 1.1-2.3-1.1-2.3L8 18zm-6 0l1.4 2.9 3-3-3-2.9L2 18zm3-5.7L6.6 16 9 13.9l-.2-3.2L5 12.3zm18.5-2.1l.8 2.4 2.4.8v-3.2h-3.2zm-12.3 3.2l2.4-.8.8-2.4h-3.2v3.2zm5.5-4.1l2.3 1.1 2.3-1.1L19 7l-2.3 2.3zm11.2-.2H32L30.9 6l-3.1-1.1.1 4.2zM7 6L5.9 9.1h4.2V4.9L7 6zm13.9-.4L23.1 8l3.2-.2-1.6-3.7-3.8 1.5zm-9.2 2.2l3.2.2L17 5.6 13.3 4l-1.6 3.8zM19 1l-3 1.4 2.9 3 3-2.9L19 1z" fill="#8e1a86"></path></svg>